<?xml version="1.0" encoding="utf-8"?>
<!-- Generator: Adobe Illustrator 16.0.0, SVG Export Plug-In . SVG Version: 6.00 Build 0)  -->
<!DOCTYPE svg PUBLIC "-//W3C//DTD SVG 1.1//EN" "http://www.w3.org/Graphics/SVG/1.1/DTD/svg11.dtd">
<svg version="1.1" id="Layer_1" xmlns="http://www.w3.org/2000/svg" xmlns:xlink="http://www.w3.org/1999/xlink" x="0px" y="0px"
	 width="100px" height="100px" viewBox="0 0 100 100" enable-background="new 0 0 100 100" xml:space="preserve">
<g id="Your_Icon">
	<g>
		<path d="M61.062,18.771c1.664-1.086,2.801-2.268,4.524-3.992c0.787-0.787,4.306-3.486,4.261-4.526
			c-0.022-0.512-3.005-2.829-4.261-3.993C63.484,4.311,61.878,2.943,60.529,2c-1.297,1.583-2.331,2.862-4.26,5.059
			c-0.886,1.009-3.824,3.437-3.728,4.259c-0.002-0.021,1.965,1.721,2.131,1.863C57.064,15.243,59.256,16.916,61.062,18.771z"/>
		<path d="M69.049,31.018c8.354-0.644,14.117-4.167,18.369-9.85c-2.542-2.96-5.049-5.955-7.455-9.052
			c-4.623,3.841-9.609,8.538-16.771,9.052c-9.235,0.661-16.717-5.55-19.167-12.513c-0.015-0.162-0.04-0.315-0.267-0.266
			C43.656,23.577,55.107,32.092,69.049,31.018z"/>
		<path d="M87.684,37.673c-2.56-2.546-6.875-4.957-10.647-5.324c-12.687-1.235-16.146,9.045-20.498,16.24
			c-1.558,2.572-4.478,7.316-7.721,7.453c-3.109,0.132-4.975-2.575-8.253-2.929c8.067-3.732,13.799-18.92,6.656-27.153
			c-8.349-9.621-27.573-3.695-34.609,2.929c2.079,3.866,4.3,7.591,6.124,11.713c3.92-2.102,7.943-5.812,13.311-6.921
			c6.275-1.299,12.287,1.149,12.246,6.122c-0.065,7.918-11.882,8.084-19.7,6.39c1.573,5.258,3.132,10.534,5.058,15.439
			c7.672-3.948,17.205-0.167,17.305,7.987c0.107,8.883-9.836,13.365-17.57,13.045C12.635,81.967,6.696,65.646,4.624,51.518
			c-2.445,15.23,2.524,28.31,10.915,35.938c8.174,7.435,25.282,11.922,34.608,1.33c5.517-6.265,5.798-21.603,1.065-28.75
			c16.688,4.104,16.933-11.52,24.492-17.305c7.188-5.501,13.41,0.336,14.375,7.986c0.961,7.624-1.792,15.626-6.655,19.701
			c-7.771,6.509-23.009,3.706-22.628-7.455C57.372,75.912,63.734,89.4,78.1,87.723C98.598,85.327,100.67,50.589,87.684,37.673z"/>
	</g>
</g>
</svg>
